<svg width="1920" height="254" viewBox="0 0 1920 254" fill="none" xmlns="http://www.w3.org/2000/svg">
<path d="M775 16C775 7.16344 782.163 0 791 0H1129C1137.84 0 1145 7.16344 1145 16V254H775V16Z" fill="#011640"/>
<g opacity="0.5">
<path d="M286 66C286 57.1634 293.163 50 302 50H640C648.837 50 656 57.1634 656 66V254H286V66Z" fill="#011640"/>
</g>
<g opacity="0.5">
<path d="M-203 116C-203 107.163 -195.837 100 -187 100H151C159.837 100 167 107.163 167 116V254H-203V116Z" fill="#EF3340"/>
</g>
<g opacity="0.5">
<path d="M1264 66C1264 57.1634 1271.16 50 1280 50H1618C1626.84 50 1634 57.1634 1634 66V254H1264V66Z" fill="#011640"/>
</g>
<g opacity="0.5">
<path d="M1753 116C1753 107.163 1760.16 100 1769 100H2107C2115.84 100 2123 107.163 2123 116V254H1753V116Z" fill="#EF3340"/>
</g>
</svg>
