<svg width="127" height="24" viewBox="0 0 127 24" fill="none" xmlns="http://www.w3.org/2000/svg">
<g clip-path="url(#clip0_7_18)">
<path d="M12.9015 10.944V13.056H2.92328V10.944H12.9015ZM4.57997 12L3.57073 18.432L2.37105 17.0112H13.4537V19.2H1L2.14254 12L1 4.80002H13.3585V6.98882H2.37105L3.57073 5.56802L4.57997 12ZM17.2932 11.0976H27.557V13.3248H17.2932V11.0976ZM27.8617 4.80002V7.02722H17.217L18.588 5.58722V19.2H16.0745V4.80002H27.8617Z" fill="white"/>
<path d="M41.393 1.20703L34.8616 12.1829L41.393 22.793H50.4644C48.7183 20.774 45.9638 16.8491 43.9476 12.1829M41.393 1.20703H50.4644L43.9476 12.1829M41.393 1.20703C41.393 4.95824 42.4727 8.76897 43.9476 12.1829" stroke="#EF3340" stroke-width="2"/>
<path d="M66.606 22.793L73.188 11.8171L66.606 1.20703H57.4644C59.2239 3.22593 61.9998 7.15094 64.0315 11.8171M66.606 22.793H57.4644L64.0315 11.8171M66.606 22.793C66.606 19.0418 65.5179 15.231 64.0315 11.8171" stroke="#EF3340" stroke-width="2"/>
<path d="M86.0911 5.97125H88.6047V19.2H86.0911V5.97125ZM80.188 4.80005H94.508V7.02725H80.188V4.80005ZM107.822 10.944V13.056H97.8437V10.944H107.822ZM99.5003 12.0001L98.4911 18.4321L97.2914 17.0113H108.374V19.2H95.9203L97.063 12.0001L95.9203 4.80005H108.279V6.98885H97.2914L98.4911 5.56805L99.5003 12.0001ZM125.816 13.4976C125.689 14.6752 125.276 15.7185 124.578 16.6273C123.892 17.5233 122.991 18.2208 121.874 18.72C120.757 19.2193 119.481 19.4688 118.046 19.4688C116.447 19.4688 115.044 19.1553 113.838 18.528C112.632 17.9008 111.693 17.0304 111.02 15.9169C110.347 14.7904 110.01 13.4848 110.01 12.0001C110.01 10.5153 110.347 9.21605 111.02 8.10245C111.693 6.97604 112.632 6.09926 113.838 5.47205C115.044 4.84484 116.447 4.53125 118.046 4.53125C119.481 4.53125 120.757 4.78085 121.874 5.28005C122.991 5.77925 123.892 6.47684 124.578 7.37285C125.276 8.26886 125.689 9.31205 125.816 10.5024H123.283C123.143 9.73445 122.839 9.07526 122.369 8.52485C121.912 7.97444 121.315 7.55204 120.579 7.25765C119.843 6.95045 118.992 6.79685 118.027 6.79685C116.91 6.79685 115.939 7.00805 115.114 7.43045C114.302 7.85285 113.673 8.45444 113.229 9.23525C112.784 10.0161 112.562 10.9377 112.562 12.0001C112.562 13.0624 112.784 13.984 113.229 14.7649C113.673 15.5457 114.302 16.1473 115.114 16.5697C115.939 16.9921 116.91 17.2032 118.027 17.2032C118.992 17.2032 119.843 17.056 120.579 16.7617C121.315 16.4673 121.912 16.0449 122.369 15.4945C122.839 14.9313 123.143 14.2656 123.283 13.4976H125.816Z" fill="white"/>
</g>
<defs>
<clipPath id="clip0_7_18">
<rect width="126.816" height="23.586" fill="white" transform="translate(0 0.207031)"/>
</clipPath>
</defs>
</svg>
