<svg width="168" height="24" viewBox="0 0 168 24" fill="none" xmlns="http://www.w3.org/2000/svg">
<g clip-path="url(#clip0_111_128)">
<path d="M50.6667 0H22.6667C19.7212 0 17.3334 2.38781 17.3334 5.33333V14.6667C17.3334 17.6122 19.7212 20 22.6667 20H50.6667C53.6122 20 56 17.6122 56 14.6667V5.33333C56 2.38781 53.6122 0 50.6667 0Z" fill="#2C2C2C"/>
<path d="M33.3333 4H5.33333C2.38781 4 0 6.38781 0 9.33333V18.6667C0 21.6122 2.38781 24 5.33333 24H33.3333C36.2789 24 38.6667 21.6122 38.6667 18.6667V9.33333C38.6667 6.38781 36.2789 4 33.3333 4Z" fill="url(#paint0_linear_111_128)" fill-opacity="0.8"/>
<path d="M68.752 6.47196H71.216V19.3333H68.752V6.47196ZM62.9653 5.33329H77.0027V7.49863H62.9653V5.33329ZM85.1675 19.3333L84.7568 15.4133L85.2421 14.0506L84.7568 12.7066L85.1675 8.76796H87.6688L87.1088 14.0506L87.6688 19.3333H85.1675ZM85.9141 14.0506C85.6776 15.1582 85.2856 16.1289 84.7381 16.9626C84.1905 17.7964 83.5123 18.4436 82.7035 18.904C81.9069 19.3644 81.0172 19.5946 80.0341 19.5946C79.0012 19.5946 78.0865 19.3644 77.2901 18.904C76.4936 18.431 75.8715 17.7777 75.4235 16.944C74.9755 16.1102 74.7515 15.1457 74.7515 14.0506C74.7515 12.9431 74.9755 11.9786 75.4235 11.1573C75.8715 10.3235 76.4936 9.6764 77.2901 9.21596C78.0865 8.74307 79.0012 8.50663 80.0341 8.50663C81.0172 8.50663 81.9069 8.73685 82.7035 9.19729C83.5123 9.65773 84.1905 10.3049 84.7381 11.1386C85.2981 11.96 85.6901 12.9306 85.9141 14.0506ZM77.2155 14.0506C77.2155 14.76 77.3585 15.3884 77.6448 15.936C77.9435 16.471 78.3479 16.8942 78.8581 17.2053C79.3683 17.504 79.9532 17.6533 80.6128 17.6533C81.2848 17.6533 81.9069 17.504 82.4795 17.2053C83.0519 16.8942 83.5559 16.471 83.9915 15.936C84.4395 15.3884 84.7941 14.76 85.0555 14.0506C84.7941 13.3413 84.4395 12.7191 83.9915 12.184C83.5559 11.6364 83.0519 11.2133 82.4795 10.9146C81.9069 10.6035 81.2848 10.448 80.6128 10.448C79.9532 10.448 79.3683 10.6035 78.8581 10.9146C78.3479 11.2133 77.9435 11.6364 77.6448 12.184C77.3585 12.7191 77.2155 13.3413 77.2155 14.0506ZM100.943 16.1226C100.943 16.832 100.744 17.448 100.345 17.9706C99.9472 18.4933 99.3437 18.8977 98.5348 19.184C97.7259 19.4577 96.7117 19.5946 95.4921 19.5946C94.2352 19.5946 93.1464 19.439 92.2255 19.128C91.3045 18.8044 90.5891 18.3564 90.0788 17.784C89.5811 17.199 89.3135 16.527 89.2761 15.768H91.7401C91.8148 16.1662 92.0139 16.5209 92.3375 16.832C92.6735 17.1306 93.1091 17.3609 93.6441 17.5226C94.1917 17.6844 94.8139 17.7653 95.5108 17.7653C96.5188 17.7653 97.2779 17.647 97.7881 17.4106C98.2984 17.1617 98.5535 16.7884 98.5535 16.2906C98.5535 15.9546 98.3792 15.6996 98.0308 15.5253C97.6948 15.351 97.0539 15.2204 96.1081 15.1333L94.0361 14.9466C92.9161 14.847 92.0325 14.648 91.3855 14.3493C90.7384 14.0382 90.2779 13.6649 90.0041 13.2293C89.7304 12.7813 89.5935 12.3084 89.5935 11.8106C89.5935 11.0889 89.8175 10.4853 90.2655 9.99996C90.7135 9.51463 91.3357 9.14752 92.1321 8.89863C92.9285 8.63729 93.8557 8.50663 94.9135 8.50663C96.0085 8.50663 96.9855 8.66219 97.8441 8.97329C98.7028 9.27196 99.3872 9.69507 99.8975 10.2426C100.408 10.7777 100.694 11.4 100.756 12.1093H98.2921C98.2424 11.8231 98.0931 11.5493 97.8441 11.288C97.6077 11.0142 97.2405 10.7902 96.7428 10.616C96.2575 10.4293 95.6041 10.336 94.7828 10.336C93.9117 10.336 93.2272 10.448 92.7295 10.672C92.2441 10.896 92.0015 11.2257 92.0015 11.6613C92.0015 11.9351 92.1508 12.1715 92.4495 12.3706C92.7481 12.5573 93.3019 12.688 94.1108 12.7626L96.7801 13.0053C97.8504 13.1049 98.6841 13.2977 99.2815 13.584C99.8912 13.8577 100.321 14.2124 100.569 14.648C100.818 15.0836 100.943 15.575 100.943 16.1226ZM105.337 17.224L104.628 16.9626L111.348 8.76796H114.148L105.169 19.3333H102.91V4.95996H105.337V17.224ZM108.342 14.1066L110.041 12.576L114.465 19.3333H111.609L108.342 14.1066Z" fill="#2C2C2C"/>
<path d="M117.164 11.456H127.225V13.6213H117.164V11.456ZM127.524 5.33329V7.49863H117.089L118.433 6.09863V19.3333H115.969V5.33329H127.524ZM129.507 4.95996H131.933V19.3333H129.507V4.95996ZM140.344 19.5946C139.063 19.5946 137.936 19.3644 136.965 18.904C136.007 18.431 135.255 17.7777 134.707 16.944C134.172 16.1102 133.904 15.1457 133.904 14.0506C133.904 12.9431 134.172 11.9786 134.707 11.1573C135.255 10.3235 136.007 9.6764 136.965 9.21596C137.936 8.74307 139.063 8.50663 140.344 8.50663C141.625 8.50663 142.745 8.74307 143.704 9.21596C144.675 9.6764 145.428 10.3235 145.963 11.1573C146.511 11.9786 146.784 12.9431 146.784 14.0506C146.784 15.1457 146.511 16.1102 145.963 16.944C145.428 17.7777 144.675 18.431 143.704 18.904C142.745 19.3644 141.625 19.5946 140.344 19.5946ZM140.344 17.6906C141.165 17.6906 141.868 17.5413 142.453 17.2426C143.051 16.944 143.511 16.527 143.835 15.992C144.159 15.4444 144.32 14.7973 144.32 14.0506C144.32 13.304 144.159 12.6631 143.835 12.128C143.511 11.5804 143.051 11.1573 142.453 10.8586C141.868 10.56 141.165 10.4106 140.344 10.4106C139.535 10.4106 138.832 10.56 138.235 10.8586C137.637 11.1573 137.177 11.5804 136.853 12.128C136.529 12.6631 136.368 13.304 136.368 14.0506C136.368 14.7973 136.529 15.4444 136.853 15.992C137.177 16.527 137.637 16.944 138.235 17.2426C138.832 17.5413 139.535 17.6906 140.344 17.6906ZM162.113 18.0826H161.255L164.895 8.76796H167.321L163.065 19.3333H160.583L156.849 9.86929H157.801L153.975 19.3333H151.492L147.255 8.76796H149.719L153.377 18.0826H152.463L156.121 8.76796H158.548L162.113 18.0826Z" fill="url(#paint1_linear_111_128)" fill-opacity="0.8"/>
</g>
<defs>
<linearGradient id="paint0_linear_111_128" x1="0" y1="4" x2="38.6667" y2="24" gradientUnits="userSpaceOnUse">
<stop stop-color="#0038FF"/>
<stop offset="0.5" stop-color="#00B3FF"/>
<stop offset="1" stop-color="#0038FF"/>
</linearGradient>
<linearGradient id="paint1_linear_111_128" x1="62.6666" y1="0.666628" x2="115.113" y2="65.8718" gradientUnits="userSpaceOnUse">
<stop stop-color="#0038FF"/>
<stop offset="0.5" stop-color="#00B3FF"/>
<stop offset="1" stop-color="#0038FF"/>
</linearGradient>
<clipPath id="clip0_111_128">
<rect width="168" height="24" fill="white"/>
</clipPath>
</defs>
</svg>
